<svg width="20" height="21" viewBox="0 0 20 21" fill="none" xmlns="http://www.w3.org/2000/svg">
<rect y="0.5" width="20" height="20" rx="10" fill="#007EE5"/>
<rect x="0.5" y="1" width="19" height="19" rx="9.5" stroke="white" stroke-opacity="0.5"/>
<path d="M3.55891 11.58L5.06891 4.48H10.3289L10.0389 5.89H6.40891L6.10891 7.31H7.84891C8.38225 7.31 8.81558 7.39667 9.14891 7.57C9.48225 7.74333 9.71891 7.98667 9.85891 8.3C9.99891 8.60667 10.0356 8.97333 9.96891 9.4C9.90225 9.84 9.75558 10.2233 9.52891 10.55C9.30891 10.8767 9.01225 11.13 8.63891 11.31C8.26558 11.49 7.81891 11.58 7.29891 11.58H3.55891ZM5.49891 10.19H7.26891C7.48891 10.19 7.66891 10.15 7.80891 10.07C7.94891 9.98333 8.05891 9.87667 8.13891 9.75C8.21891 9.61667 8.26891 9.48333 8.28891 9.35C8.31558 9.21667 8.30891 9.09 8.26891 8.97C8.23558 8.85 8.15891 8.75667 8.03891 8.69C7.91891 8.61667 7.73891 8.58 7.49891 8.58H5.83891L5.49891 10.19Z" fill="white"/>
<path d="M6.82 16.5L8.32 9.4H9.97L8.77 15.06H10.65L11.84 9.4H13.48L12.29 15.06H14.16L15.36 9.4H17L15.5 16.5H6.82Z" fill="white"/>
</svg>
