<svg width="20" height="20" viewBox="0 0 20 20" fill="none" xmlns="http://www.w3.org/2000/svg">
<path fill-rule="evenodd" clip-rule="evenodd" d="M14.6651 12.8978H13.7383L13.4098 12.5812C13.5239 12.4483 13.6334 12.3114 13.7383 12.1708C13.8027 12.0845 13.8653 11.9968 13.9261 11.9078C14.1448 11.5875 14.3399 11.25 14.5087 10.8978C15.1601 9.5393 15.4214 7.96333 15.1461 6.3203C14.5947 3.06086 11.873 0.457994 8.58819 0.0593566C3.62576 -0.550324 -0.550646 3.62364 0.0593914 8.58315C0.458262 11.866 3.06265 14.5862 6.32401 15.1372C7.96847 15.4125 9.54581 15.1511 10.9054 14.4997C11.2573 14.331 11.5946 14.1363 11.9147 13.918C12.0038 13.8572 12.0916 13.7946 12.178 13.7303C12.3186 13.6255 12.4556 13.5159 12.5886 13.402L12.9054 13.7303V14.6565L17.8913 19.6395C18.3723 20.1202 19.1583 20.1202 19.6393 19.6395C20.1202 19.1588 20.1202 18.3732 19.6393 17.8925L14.6651 12.8978ZM11.6128 11.6044L11.8917 11.2792C12.9339 10.064 13.469 8.41677 13.1739 6.65254C12.7694 4.26522 10.7509 2.33649 8.34724 2.04479L8.3443 2.04443C4.67146 1.59319 1.5934 4.67217 2.04443 8.33899L2.04479 8.34193C2.33643 10.7422 4.26528 12.7603 6.65577 13.1649C8.42229 13.4601 10.0714 12.9248 11.2875 11.8831L11.6128 11.6044Z" fill="#9F9F9F"/>
</svg>
